<svg xmlns="http://www.w3.org/2000/svg" viewBox="0 0 109.3 64.45"><defs><style>.cls-1{fill:#1d1d1b;}</style></defs><title>Asset 1</title><g id="Layer_2" data-name="Layer 2"><g id="Layer_1-2" data-name="Layer 1"><path class="cls-1" d="M31.17,3.9c-3-3.37-7-5-11.51-3-3.9,1.75-6.38,6.87-8.34,10.42C4.78,23.17-.81,37.37.1,51.23.6,59,8.28,69.45,16.16,61.76c3.79-3.69,5.68-9.56,7.68-14.33C27,40,29,33.16,29.44,25.06a1.26,1.26,0,0,0-2.33-.63c-1.9,4.11-1.46,8.76-1.95,13.18a173.52,173.52,0,0,0-1.42,17.32c0,5.12,2.45,10.21,7.62,5.74,1.22-1.05-.56-2.81-1.77-1.77-3,2.62-3.37-3-3.32-4.69.08-3.07.59-6.12.81-9.18.19-2.75.38-5.49.67-8.24.39-3.62,0-7.75,1.52-11.1l-2.33-.63c-.55,10.39-4.1,19.53-8.66,28.78-2.15,4.36-6.57,11.33-12,6.22-3.62-3.41-4-8.63-3.62-13.26a77.94,77.94,0,0,1,9-30.74C15.11,9.6,21.44-3.22,29.4,5.67c1.08,1.2,2.84-.57,1.77-1.77Z"/><path class="cls-1" d="M36.43,45a7,7,0,0,0-.3-1.56,1.25,1.25,0,0,0-2.45.34c0,6.52,1.58,12.87,1.75,19.32a1.25,1.25,0,0,0,2.5,0,50.49,50.49,0,0,1,.33-7.27c.21-1.57.62-8,2.55-3.25,1.37,3.38-.05,7.41,1,10.84a1.25,1.25,0,0,0,2.45-.33l0-.21c.2-1.59-2.3-1.58-2.5,0l0,.21,2.46-.33c-1-3.08,0-6.6-.71-9.75-.4-1.69-1.76-5-3.84-5.29-4.89-.65-4.28,13.05-4.26,15.38h2.5c-.17-6.46-1.7-12.8-1.75-19.32l-2.46.33.21.89c.18,1.58,2.68,1.6,2.5,0Z"/><path class="cls-1" d="M63.66,50.23c1.28,4.25,1.25,8.49,1.34,12.87h2.5c-.12-2-.68-4-.53-6a4.89,4.89,0,0,1,1.33-3.22c.42-.45,2.7-2,2.64-2.21a1.23,1.23,0,0,0,.87.87l.1,0c1.57.29,2.25-2.12.66-2.41l-.1,0,.88.87c-1-3.54-5-.65-6.58.88-3.2,3.23-2,7.1-1.77,11.18a1.25,1.25,0,0,0,2.5,0c-.09-4.63-.08-9-1.43-13.54a1.25,1.25,0,0,0-2.41.67Z"/><path class="cls-1" d="M75.74,55.79c.12,4.36,7.08-.54,8.09-1.47,1.26-1.16,2.64-3.19,1.35-4.83s-3.31-.92-4.61.17c-2.83,2.4-5.5,9.09-3.08,12.56,2.54,3.64,8.81,2.23,9.58-2.1.28-1.57-2.12-2.25-2.41-.66-.54,3-5.06,3.09-5.43,0a10,10,0,0,1,1-5c.28-.62,1.18-2.8,1.88-2.85,1.58-.1-1.14,1.8-1.06,1.74a9.31,9.31,0,0,1-1.94,1.28c-1.11.46-.87-.17-.84,1.13a1.25,1.25,0,0,0-2.5,0Z"/><path class="cls-1" d="M88.37,50.1c0,2.95,0,5.88.12,8.83.06,2.18.32,4,2.25,5.25,1.36.87,2.61-1.29,1.26-2.16-1.57-1-1-4.3-1.09-6-.07-2,0-4,0-5.94a1.25,1.25,0,0,0-2.5,0Z"/><path class="cls-1" d="M100,48.82c-2.58,2.42-4.53,5-4.92,8.6-.26,2.49,0,5.68,2.7,6.67,2.91,1.07,4.71-1.78,5.55-4.14a18.4,18.4,0,0,0,.81-6.09c0-1.23.3-2.81-.4-3.88a1.26,1.26,0,0,0-2.33.63,26,26,0,0,0,.82,6,13.57,13.57,0,0,0,1.94,5.13c2.13,3,4.24-.86,5-2.8.61-1.49-1.81-2.14-2.41-.67-.21.49-.7,2-1.44,2.11l1.22.33c-2-2.14-2.82-7.29-2.68-10.09l-2.33.63c.55.84.08,3.63,0,4.62-.09,1.4-1.35,7.53-3.57,5.46-1.21-1.14-.42-4.61.06-5.92a13,13,0,0,1,3.69-4.81c1.18-1.1-.59-2.87-1.77-1.77Z"/><path class="cls-1" d="M88.37,45.87v.37a1.25,1.25,0,0,0,2.5,0v-.37a1.25,1.25,0,0,0-2.5,0Z"/><path class="cls-1" d="M60,60.25c-3.81,4-3.43-6.85-3.38-8.72.08-3.66.34-7.29.19-11-.29-6.8-.42-13.55-.42-20.36h-2.5v.18a1.25,1.25,0,0,0,2.5,0v-.18a1.25,1.25,0,0,0-2.5,0c0,11.4.18,22.77.23,34.16,0,2.49-.69,7.53,1.77,9.33,2.08,1.53,4.39-.14,5.88-1.68,1.12-1.16-.65-2.93-1.77-1.77Z"/><path class="cls-1" d="M55,48.73c-2.38-.73-4.81.65-6.49,2.37-1.85,1.9-2.06,5.08-1.76,7.54.21,1.73.86,5,2.88,5.61,2.17.66,5.38-1.93,7-3.07,1.3-.92.06-3.09-1.26-2.16a30.27,30.27,0,0,1-3,1.85c-1.88,1-2.57.14-3-1.73-.33-1.6-.43-3.87.38-5.33.69-1.24,3.07-3.14,4.59-2.67A1.25,1.25,0,0,0,55,48.73Z"/></g></g></svg>